M48
;Layer_Color=9474304
;FILE_FORMAT=4:4
METRIC,LZ
;TYPE=PLATED
T01F00S00C0.7112
T02F00S00C0.9200
T03F00S00C1.6000
T04F00S00C2.3000
T05F00S00C4.2000
;TYPE=NON_PLATED
T06F00S00C5.0000
%
T01
X00492Y00297
X0054Y0035
X00429Y00581
T02
X00399Y00131
X00424
X00444
X00469
T03
X004435Y0017525
X0054625Y001055
X00692Y00375
X00216Y00406
X0044375Y00422
X0036025Y0052725
X004995Y00561
T04
X003683Y001039
X004997
T05
X00249Y0077
X00453
T06
X00814Y00046
X00046
X00814Y00814
X00046
M30
