G04*
G04 #@! TF.GenerationSoftware,Altium Limited,Altium Designer,24.1.2 (44)*
G04*
G04 Layer_Color=32896*
%FSLAX44Y44*%
%MOMM*%
G71*
G04*
G04 #@! TF.SameCoordinates,927C013D-A056-43EA-BD9B-1951F5445D31*
G04*
G04*
G04 #@! TF.FilePolarity,Positive*
G04*
G01*
G75*
%ADD11C,0.2500*%
%ADD12C,0.2000*%
%ADD14C,0.2540*%
D11*
X656750Y471050D02*
G03*
X656750Y471050I-1250J0D01*
G01*
D12*
X584000Y431500D02*
Y442500D01*
X566000Y431500D02*
Y442500D01*
X802000Y399000D02*
Y423000D01*
Y399000D02*
X848000D01*
Y423000D01*
X802000D02*
X848000D01*
X747000Y399000D02*
Y423000D01*
Y399000D02*
X793000D01*
Y423000D01*
X747000D02*
X793000D01*
X639000Y418000D02*
Y468000D01*
X623000Y418000D02*
Y468000D01*
X639000D01*
X623000Y418000D02*
X639000D01*
X702750Y417500D02*
Y439500D01*
X681250Y417500D02*
Y439500D01*
X710000Y398000D02*
X734000D01*
Y444000D01*
X710000D02*
X734000D01*
X710000Y398000D02*
Y444000D01*
X626500Y403000D02*
X637500D01*
X626500Y385000D02*
X637500D01*
X622500Y494000D02*
X633500D01*
X622500Y512000D02*
X633500D01*
X680000Y447250D02*
X702000D01*
X680000Y468750D02*
X702000D01*
X759500Y451000D02*
X766500D01*
X759500Y467000D02*
X766500D01*
D14*
X837696Y375882D02*
Y391118D01*
X830078D01*
X827539Y388578D01*
Y383500D01*
X830078Y380961D01*
X837696D01*
X832617D02*
X827539Y375882D01*
X812304Y391118D02*
X822461D01*
Y383500D01*
X817383Y386039D01*
X814843D01*
X812304Y383500D01*
Y378422D01*
X814843Y375882D01*
X819922D01*
X822461Y378422D01*
X596157Y492868D02*
Y480172D01*
X593618Y477632D01*
X588539D01*
X586000Y480172D01*
Y492868D01*
X580922Y477632D02*
X575843D01*
X578382D01*
Y492868D01*
X580922Y490328D01*
X733696Y375382D02*
Y390617D01*
X726078D01*
X723539Y388078D01*
Y383000D01*
X726078Y380461D01*
X733696D01*
X728617D02*
X723539Y375382D01*
X710843D02*
Y390617D01*
X718461Y383000D01*
X708304D01*
X782696Y376632D02*
Y391867D01*
X775078D01*
X772539Y389328D01*
Y384250D01*
X775078Y381711D01*
X782696D01*
X777617D02*
X772539Y376632D01*
X767461Y389328D02*
X764922Y391867D01*
X759843D01*
X757304Y389328D01*
Y386789D01*
X759843Y384250D01*
X762382D01*
X759843D01*
X757304Y381711D01*
Y379172D01*
X759843Y376632D01*
X764922D01*
X767461Y379172D01*
X774696Y475382D02*
Y490617D01*
X767078D01*
X764539Y488078D01*
Y483000D01*
X767078Y480461D01*
X774696D01*
X769617D02*
X764539Y475382D01*
X749304D02*
X759461D01*
X749304Y485539D01*
Y488078D01*
X751843Y490617D01*
X756922D01*
X759461Y488078D01*
X545539Y443078D02*
X548078Y445617D01*
X553157D01*
X555696Y443078D01*
Y432922D01*
X553157Y430382D01*
X548078D01*
X545539Y432922D01*
X540461Y445617D02*
X530304D01*
Y443078D01*
X540461Y432922D01*
Y430382D01*
X694539Y407078D02*
X697078Y409618D01*
X702157D01*
X704696Y407078D01*
Y396922D01*
X702157Y394383D01*
X697078D01*
X694539Y396922D01*
X679304Y409618D02*
X684382Y407078D01*
X689461Y402000D01*
Y396922D01*
X686922Y394383D01*
X681843D01*
X679304Y396922D01*
Y399461D01*
X681843Y402000D01*
X689461D01*
X694539Y489078D02*
X697078Y491618D01*
X702157D01*
X704696Y489078D01*
Y478922D01*
X702157Y476382D01*
X697078D01*
X694539Y478922D01*
X679304Y491618D02*
X689461D01*
Y484000D01*
X684382Y486539D01*
X681843D01*
X679304Y484000D01*
Y478922D01*
X681843Y476382D01*
X686922D01*
X689461Y478922D01*
X632499Y533998D02*
X634998Y536498D01*
X639997D01*
X642496Y533998D01*
Y524002D01*
X639997Y521502D01*
X634998D01*
X632499Y524002D01*
X620003Y521502D02*
Y536498D01*
X627501Y529000D01*
X617504D01*
X635539Y374078D02*
X638078Y376618D01*
X643157D01*
X645696Y374078D01*
Y363922D01*
X643157Y361382D01*
X638078D01*
X635539Y363922D01*
X630461Y374078D02*
X627922Y376618D01*
X622843D01*
X620304Y374078D01*
Y371539D01*
X622843Y369000D01*
X625382D01*
X622843D01*
X620304Y366461D01*
Y363922D01*
X622843Y361382D01*
X627922D01*
X630461Y363922D01*
M02*
