G04*
G04 #@! TF.GenerationSoftware,Altium Limited,Altium Designer,24.1.2 (44)*
G04*
G04 Layer_Physical_Order=2*
G04 Layer_Color=16711680*
%FSLAX44Y44*%
%MOMM*%
G71*
G04*
G04 #@! TF.SameCoordinates,927C013D-A056-43EA-BD9B-1951F5445D31*
G04*
G04*
G04 #@! TF.FilePolarity,Positive*
G04*
G01*
G75*
%ADD13C,0.3000*%
%ADD14C,0.2540*%
%ADD18R,1.6000X0.9000*%
%ADD41C,0.5000*%
%ADD43C,6.0000*%
%ADD44C,2.4000*%
%ADD45C,11.0000*%
%ADD46C,3.4500*%
G04:AMPARAMS|DCode=47|XSize=1.42mm|YSize=1.42mm|CornerRadius=0.355mm|HoleSize=0mm|Usage=FLASHONLY|Rotation=0.000|XOffset=0mm|YOffset=0mm|HoleType=Round|Shape=RoundedRectangle|*
%AMROUNDEDRECTD47*
21,1,1.4200,0.7100,0,0,0.0*
21,1,0.7100,1.4200,0,0,0.0*
1,1,0.7100,0.3550,-0.3550*
1,1,0.7100,-0.3550,-0.3550*
1,1,0.7100,-0.3550,0.3550*
1,1,0.7100,0.3550,0.3550*
%
%ADD47ROUNDEDRECTD47*%
%ADD48C,1.4200*%
%ADD49C,1.2700*%
%ADD50R,1.7000X0.9500*%
%ADD51R,0.9000X1.6000*%
%ADD52O,2.5000X0.7000*%
%ADD53R,1.3500X0.9500*%
%ADD54R,0.9500X1.7000*%
%ADD55R,0.9500X1.3500*%
%ADD56R,1.3000X1.8000*%
%ADD57C,0.4000*%
%ADD58C,0.7000*%
%ADD59C,0.3500*%
D13*
X563350Y436650D02*
X605500D01*
X472750Y527250D02*
X563350Y436650D01*
X360250Y527250D02*
X472750D01*
X557500Y503000D02*
X614000D01*
X499500Y561000D02*
X557500Y503000D01*
X492000Y297000D02*
X518000Y323000D01*
X794000D02*
X839500Y368500D01*
X518000Y323000D02*
X794000D01*
X839500Y368500D02*
Y411000D01*
X540000Y350000D02*
X548647Y358647D01*
X699500Y459000D02*
X749000D01*
X698500Y458000D02*
X699500Y459000D01*
X692000Y436000D02*
X692500Y435500D01*
X691350Y436650D02*
X692000Y436000D01*
X692500Y435500D02*
X722000D01*
X746500D01*
X755500Y426500D01*
Y411000D02*
Y426500D01*
X784500Y411000D02*
X810500D01*
X655500Y436650D02*
X691350D01*
X655500Y449350D02*
X655850Y449000D01*
X674500D01*
X679750Y452250D02*
X683500Y456000D01*
X677750Y452250D02*
X679750D01*
X683500Y456000D02*
Y458000D01*
X674500Y449000D02*
X677750Y452250D01*
X614147Y462050D02*
X616457Y464360D01*
X576267Y449733D02*
X605117D01*
D14*
X612500Y586500D02*
X642000Y557000D01*
X435568Y586500D02*
X612500D01*
X429000Y581000D02*
X430068D01*
X435568Y586500D01*
X642000Y503000D02*
Y557000D01*
D18*
X722000Y435500D02*
D03*
Y406500D02*
D03*
D41*
X623647Y358647D02*
X646000Y381000D01*
X618000Y396928D02*
X620250Y399178D01*
X626678D02*
X632536Y405036D01*
Y459121D01*
X618000Y394000D02*
Y396928D01*
X620250Y399178D02*
X626678D01*
X616457Y462050D02*
X629607D01*
X632536Y459121D01*
X614147Y462050D02*
X616457D01*
X606500D02*
X614147D01*
X575000Y423000D02*
X575567Y423567D01*
X574500Y422500D02*
X575000Y423000D01*
X606117Y423567D02*
X606500Y423950D01*
X575567Y423567D02*
X606117D01*
X444250Y422500D02*
X574500D01*
X443750Y422000D02*
X444250Y422500D01*
X605500Y462050D02*
Y494500D01*
X614000Y503000D01*
X605117Y449733D02*
X605500Y449350D01*
X575000Y451000D02*
X576267Y449733D01*
D43*
X814000Y46000D02*
D03*
X46000D02*
D03*
X814000Y814000D02*
D03*
X46000D02*
D03*
D44*
X216000Y406000D02*
D03*
X546250Y105500D02*
D03*
X360250Y527250D02*
D03*
X443750Y422000D02*
D03*
X692000Y375000D02*
D03*
X499500Y561000D02*
D03*
X443500Y175250D02*
D03*
D45*
X249000Y770000D02*
D03*
X453000D02*
D03*
D46*
X368300Y103900D02*
D03*
X499700D02*
D03*
D47*
X399000Y131000D02*
D03*
D48*
X469000D02*
D03*
X424000D02*
D03*
X444000D02*
D03*
D49*
X540000Y350000D02*
D03*
X492000Y297000D02*
D03*
X429000Y581000D02*
D03*
D50*
X575000Y423000D02*
D03*
Y451000D02*
D03*
D51*
X839500Y411000D02*
D03*
X810500D02*
D03*
X784500D02*
D03*
X755500D02*
D03*
D52*
X655500Y462050D02*
D03*
Y449350D02*
D03*
Y436650D02*
D03*
Y423950D02*
D03*
X606500Y462050D02*
D03*
Y449350D02*
D03*
Y436650D02*
D03*
Y423950D02*
D03*
D53*
X692000Y421000D02*
D03*
Y436000D02*
D03*
D54*
X646000Y394000D02*
D03*
X618000D02*
D03*
X614000Y503000D02*
D03*
X642000D02*
D03*
D55*
X683500Y458000D02*
D03*
X698500D02*
D03*
D56*
X749000Y459000D02*
D03*
X777000D02*
D03*
D57*
X548647Y358647D02*
X623647D01*
X642000Y503000D02*
X650000D01*
X654500Y462050D02*
Y498500D01*
X650000Y503000D02*
X654500Y498500D01*
D58*
X655500Y407250D02*
Y421000D01*
Y423950D01*
X664500D02*
X667450Y421000D01*
X692000D01*
X655500Y423950D02*
X664500D01*
X691000Y368250D02*
X692000Y369250D01*
Y411000D01*
X696500Y406500D02*
X725500D01*
X692000Y411000D02*
X696500Y406500D01*
X646000Y381000D02*
Y394000D01*
X777000Y442000D02*
Y459000D01*
X770000Y435000D02*
X777000Y442000D01*
X770000Y397000D02*
Y435000D01*
X765000Y392000D02*
X770000Y397000D01*
X740000Y392000D02*
X765000D01*
X725500Y406500D02*
X740000Y392000D01*
X692000Y411000D02*
Y421000D01*
X646000Y394000D02*
Y397750D01*
X655500Y407250D01*
D59*
X812503Y729495D02*
X822500D01*
Y714500D01*
X812503D01*
X822500Y721998D02*
X817502D01*
X797508Y729495D02*
X807505D01*
Y714500D01*
X797508D01*
X807505Y721998D02*
X802506D01*
X770017Y714500D02*
Y729495D01*
X777515Y721998D01*
X767518D01*
X762520Y714500D02*
X757521D01*
X760020D01*
Y729495D01*
X762520Y726996D01*
X750023Y714500D02*
X745025D01*
X747524D01*
Y729495D01*
X750023Y726996D01*
X737527Y721998D02*
X727531D01*
X722532Y729495D02*
Y714500D01*
X712536D01*
X705038Y724497D02*
X700040D01*
X697541Y721998D01*
Y714500D01*
X705038D01*
X707537Y716999D01*
X705038Y719498D01*
X697541D01*
X692542Y729495D02*
Y714500D01*
X685044D01*
X682545Y716999D01*
Y719498D01*
Y721998D01*
X685044Y724497D01*
X692542D01*
X812503Y703994D02*
X815003Y706494D01*
X820001D01*
X822500Y703994D01*
Y701495D01*
X820001Y698996D01*
X815003D01*
X812503Y696497D01*
Y693997D01*
X815003Y691498D01*
X820001D01*
X822500Y693997D01*
X805006Y691498D02*
X800007D01*
X797508Y693997D01*
Y698996D01*
X800007Y701495D01*
X805006D01*
X807505Y698996D01*
Y693997D01*
X805006Y691498D01*
X792510D02*
X787511D01*
X790011D01*
Y706494D01*
X792510D01*
X777515Y701495D02*
X772516D01*
X770017Y698996D01*
Y691498D01*
X777515D01*
X780014Y693997D01*
X777515Y696497D01*
X770017D01*
X765019Y701495D02*
Y691498D01*
Y696497D01*
X762520Y698996D01*
X760020Y701495D01*
X757521D01*
X750023Y698996D02*
X740027D01*
X735028Y691498D02*
Y706494D01*
X727531D01*
X725032Y703994D01*
Y698996D01*
X727531Y696497D01*
X735028D01*
X717534Y691498D02*
X712536D01*
X710036Y693997D01*
Y698996D01*
X712536Y701495D01*
X717534D01*
X720033Y698996D01*
Y693997D01*
X717534Y691498D01*
X705038Y701495D02*
Y693997D01*
X702539Y691498D01*
X700040Y693997D01*
X697541Y691498D01*
X695041Y693997D01*
Y701495D01*
X682545Y691498D02*
X687544D01*
X690043Y693997D01*
Y698996D01*
X687544Y701495D01*
X682545D01*
X680046Y698996D01*
Y696497D01*
X690043D01*
X675048Y701495D02*
Y691498D01*
Y696497D01*
X672549Y698996D01*
X670049Y701495D01*
X667550D01*
X652555Y691498D02*
X657553D01*
X660053Y693997D01*
Y698996D01*
X657553Y701495D01*
X652555D01*
X650056Y698996D01*
Y696497D01*
X660053D01*
X635061Y706494D02*
Y691498D01*
X642558D01*
X645058Y693997D01*
Y698996D01*
X642558Y701495D01*
X635061D01*
X615067Y706494D02*
Y693997D01*
X612568Y691498D01*
X607570D01*
X605070Y693997D01*
Y706494D01*
X590075Y703994D02*
X592575Y706494D01*
X597573D01*
X600072Y703994D01*
Y701495D01*
X597573Y698996D01*
X592575D01*
X590075Y696497D01*
Y693997D01*
X592575Y691498D01*
X597573D01*
X600072Y693997D01*
X585077Y706494D02*
Y691498D01*
X577579D01*
X575080Y693997D01*
Y696497D01*
X577579Y698996D01*
X585077D01*
X577579D01*
X575080Y701495D01*
Y703994D01*
X577579Y706494D01*
X585077D01*
X545090Y703994D02*
X547589Y706494D01*
X552587D01*
X555087Y703994D01*
Y693997D01*
X552587Y691498D01*
X547589D01*
X545090Y693997D01*
X540092Y706494D02*
Y691498D01*
Y698996D01*
X537592Y701495D01*
X532594D01*
X530095Y698996D01*
Y691498D01*
X522597Y701495D02*
X517599D01*
X515100Y698996D01*
Y691498D01*
X522597D01*
X525096Y693997D01*
X522597Y696497D01*
X515100D01*
X510101Y701495D02*
Y691498D01*
Y696497D01*
X507602Y698996D01*
X505103Y701495D01*
X502604D01*
X490108Y686500D02*
X487608D01*
X485109Y688999D01*
Y701495D01*
X492607D01*
X495106Y698996D01*
Y693997D01*
X492607Y691498D01*
X485109D01*
X472613D02*
X477612D01*
X480111Y693997D01*
Y698996D01*
X477612Y701495D01*
X472613D01*
X470114Y698996D01*
Y696497D01*
X480111D01*
X465116Y701495D02*
Y691498D01*
Y696497D01*
X462617Y698996D01*
X460117Y701495D01*
X457618D01*
X822500Y665493D02*
Y650498D01*
X815003D01*
X812503Y652998D01*
Y655497D01*
X815003Y657996D01*
X822500D01*
X815003D01*
X812503Y660495D01*
Y662994D01*
X815003Y665493D01*
X822500D01*
X807505Y660495D02*
Y652998D01*
X805006Y650498D01*
X797508D01*
Y647999D01*
X800007Y645500D01*
X802506D01*
X797508Y650498D02*
Y660495D01*
X792510D02*
X790011D01*
Y657996D01*
X792510D01*
Y660495D01*
Y652998D02*
X790011D01*
Y650498D01*
X792510D01*
Y652998D01*
X822500Y619500D02*
Y634495D01*
X812503Y619500D01*
Y634495D01*
X807505Y619500D02*
X802506D01*
X805006D01*
Y629497D01*
X807505D01*
X785012D02*
X792510D01*
X795009Y626998D01*
Y621999D01*
X792510Y619500D01*
X785012D01*
X777515D02*
X772516D01*
X770017Y621999D01*
Y626998D01*
X772516Y629497D01*
X777515D01*
X780014Y626998D01*
Y621999D01*
X777515Y619500D01*
X765019D02*
X760020D01*
X762520D01*
Y634495D01*
X765019D01*
X750023Y629497D02*
X745025D01*
X742526Y626998D01*
Y619500D01*
X750023D01*
X752523Y621999D01*
X750023Y624498D01*
X742526D01*
X737527Y619500D02*
X730030D01*
X727531Y621999D01*
X730030Y624498D01*
X735028D01*
X737527Y626998D01*
X735028Y629497D01*
X727531D01*
X707537Y619500D02*
Y629497D01*
X702539Y634495D01*
X697541Y629497D01*
Y619500D01*
Y626998D01*
X707537D01*
X692542Y619500D02*
X687544D01*
X690043D01*
Y634495D01*
X692542D01*
X680046Y629497D02*
X675048Y619500D01*
X670049Y629497D01*
X662552D02*
X657553D01*
X655054Y626998D01*
Y619500D01*
X662552D01*
X665051Y621999D01*
X662552Y624498D01*
X655054D01*
X650056Y629497D02*
Y619500D01*
Y624498D01*
X647557Y626998D01*
X645058Y629497D01*
X642558D01*
X627563Y619500D02*
X632561D01*
X635061Y621999D01*
Y626998D01*
X632561Y629497D01*
X627563D01*
X625064Y626998D01*
Y624498D01*
X635061D01*
X620066Y629497D02*
X610069D01*
X620066Y619500D01*
X610069D01*
X812503Y607994D02*
X815003Y610494D01*
X820001D01*
X822500Y607994D01*
Y597998D01*
X820001Y595498D01*
X815003D01*
X812503Y597998D01*
X805006Y595498D02*
X800007D01*
X797508Y597998D01*
Y602996D01*
X800007Y605495D01*
X805006D01*
X807505Y602996D01*
Y597998D01*
X805006Y595498D01*
X792510Y605495D02*
Y595498D01*
Y600497D01*
X790011Y602996D01*
X787511Y605495D01*
X785012D01*
X770017Y595498D02*
X775015D01*
X777515Y597998D01*
Y602996D01*
X775015Y605495D01*
X770017D01*
X767518Y602996D01*
Y600497D01*
X777515D01*
X762520Y605495D02*
Y597998D01*
X760020Y595498D01*
X752523D01*
Y592999D01*
X755022Y590500D01*
X757521D01*
X752523Y595498D02*
Y605495D01*
X732529Y610494D02*
X722532D01*
Y607994D01*
X732529Y597998D01*
Y595498D01*
X722532D01*
X715035Y605495D02*
X710036D01*
X707537Y602996D01*
Y595498D01*
X715035D01*
X717534Y597998D01*
X715035Y600497D01*
X707537D01*
X700040Y605495D02*
X695041D01*
X692542Y602996D01*
Y595498D01*
X700040D01*
X702539Y597998D01*
X700040Y600497D01*
X692542D01*
X687544Y595498D02*
X680046D01*
X677547Y597998D01*
X680046Y600497D01*
X685045D01*
X687544Y602996D01*
X685045Y605495D01*
X677547D01*
X822500Y585495D02*
Y570500D01*
X812503D01*
X807505Y580497D02*
Y572999D01*
X805006Y570500D01*
X797508D01*
Y580497D01*
X792510Y570500D02*
Y585495D01*
Y575498D02*
X785012Y580497D01*
X792510Y575498D02*
X785012Y570500D01*
X770017D02*
X775015D01*
X777515Y572999D01*
Y577998D01*
X775015Y580497D01*
X770017D01*
X767518Y577998D01*
Y575498D01*
X777515D01*
X747524Y570500D02*
Y580497D01*
X742526Y585495D01*
X737528Y580497D01*
Y570500D01*
Y577998D01*
X747524D01*
X722532Y585495D02*
Y570500D01*
X730030D01*
X732529Y572999D01*
Y577998D01*
X730030Y580497D01*
X722532D01*
X715035D02*
X710036D01*
X707537Y577998D01*
Y570500D01*
X715035D01*
X717534Y572999D01*
X715035Y575498D01*
X707537D01*
X702539Y570500D02*
Y580497D01*
X700040D01*
X697541Y577998D01*
Y570500D01*
Y577998D01*
X695041Y580497D01*
X692542Y577998D01*
Y570500D01*
X680046D02*
X685045D01*
X687544Y572999D01*
Y577998D01*
X685045Y580497D01*
X680046D01*
X677547Y577998D01*
Y575498D01*
X687544D01*
M02*
