G04*
G04 #@! TF.GenerationSoftware,Altium Limited,Altium Designer,24.1.2 (44)*
G04*
G04 Layer_Color=16711935*
%FSLAX44Y44*%
%MOMM*%
G71*
G04*
G04 #@! TF.SameCoordinates,927C013D-A056-43EA-BD9B-1951F5445D31*
G04*
G04*
G04 #@! TF.FilePolarity,Negative*
G04*
G01*
G75*
%ADD13C,0.3000*%
%ADD26R,1.8032X1.1032*%
%ADD31C,6.2032*%
%ADD32C,2.6032*%
%ADD33C,11.2032*%
%ADD34C,3.6532*%
G04:AMPARAMS|DCode=35|XSize=1.6232mm|YSize=1.6232mm|CornerRadius=0.4566mm|HoleSize=0mm|Usage=FLASHONLY|Rotation=0.000|XOffset=0mm|YOffset=0mm|HoleType=Round|Shape=RoundedRectangle|*
%AMROUNDEDRECTD35*
21,1,1.6232,0.7100,0,0,0.0*
21,1,0.7100,1.6232,0,0,0.0*
1,1,0.9132,0.3550,-0.3550*
1,1,0.9132,-0.3550,-0.3550*
1,1,0.9132,-0.3550,0.3550*
1,1,0.9132,0.3550,0.3550*
%
%ADD35ROUNDEDRECTD35*%
%ADD36C,1.6232*%
%ADD37C,1.4732*%
%ADD50R,1.7000X0.9500*%
%ADD53R,1.3500X0.9500*%
%ADD54R,0.9500X1.7000*%
%ADD55R,0.9500X1.3500*%
%ADD60R,1.1032X1.8032*%
%ADD61O,2.7032X0.9032*%
%ADD62R,1.5032X2.0032*%
D13*
X813003Y730495D02*
X823000D01*
Y715500D01*
X813003D01*
X823000Y722998D02*
X818002D01*
X798008Y730495D02*
X808005D01*
Y715500D01*
X798008D01*
X808005Y722998D02*
X803007D01*
X770517Y715500D02*
Y730495D01*
X778015Y722998D01*
X768018D01*
X763019Y715500D02*
X758021D01*
X760520D01*
Y730495D01*
X763019Y727996D01*
X750524Y715500D02*
X745525D01*
X748024D01*
Y730495D01*
X750524Y727996D01*
X738027Y722998D02*
X728031D01*
X723032Y730495D02*
Y715500D01*
X713036D01*
X705538Y725497D02*
X700540D01*
X698040Y722998D01*
Y715500D01*
X705538D01*
X708037Y717999D01*
X705538Y720498D01*
X698040D01*
X693042Y730495D02*
Y715500D01*
X685545D01*
X683045Y717999D01*
Y720498D01*
Y722998D01*
X685545Y725497D01*
X693042D01*
X813003Y703494D02*
X815502Y705993D01*
X820501D01*
X823000Y703494D01*
Y700995D01*
X820501Y698496D01*
X815502D01*
X813003Y695997D01*
Y693498D01*
X815502Y690998D01*
X820501D01*
X823000Y693498D01*
X805506Y690998D02*
X800507D01*
X798008Y693498D01*
Y698496D01*
X800507Y700995D01*
X805506D01*
X808005Y698496D01*
Y693498D01*
X805506Y690998D01*
X793010D02*
X788011D01*
X790510D01*
Y705993D01*
X793010D01*
X778015Y700995D02*
X773016D01*
X770517Y698496D01*
Y690998D01*
X778015D01*
X780514Y693498D01*
X778015Y695997D01*
X770517D01*
X765519Y700995D02*
Y690998D01*
Y695997D01*
X763019Y698496D01*
X760520Y700995D01*
X758021D01*
X750524Y698496D02*
X740527D01*
X735528Y690998D02*
Y705993D01*
X728031D01*
X725532Y703494D01*
Y698496D01*
X728031Y695997D01*
X735528D01*
X718034Y690998D02*
X713036D01*
X710536Y693498D01*
Y698496D01*
X713036Y700995D01*
X718034D01*
X720533Y698496D01*
Y693498D01*
X718034Y690998D01*
X705538Y700995D02*
Y693498D01*
X703039Y690998D01*
X700540Y693498D01*
X698040Y690998D01*
X695541Y693498D01*
Y700995D01*
X683045Y690998D02*
X688044D01*
X690543Y693498D01*
Y698496D01*
X688044Y700995D01*
X683045D01*
X680546Y698496D01*
Y695997D01*
X690543D01*
X675548Y700995D02*
Y690998D01*
Y695997D01*
X673049Y698496D01*
X670549Y700995D01*
X668050D01*
X653055Y690998D02*
X658053D01*
X660553Y693498D01*
Y698496D01*
X658053Y700995D01*
X653055D01*
X650556Y698496D01*
Y695997D01*
X660553D01*
X635561Y705993D02*
Y690998D01*
X643058D01*
X645557Y693498D01*
Y698496D01*
X643058Y700995D01*
X635561D01*
X615567Y705993D02*
Y693498D01*
X613068Y690998D01*
X608070D01*
X605570Y693498D01*
Y705993D01*
X590575Y703494D02*
X593074Y705993D01*
X598073D01*
X600572Y703494D01*
Y700995D01*
X598073Y698496D01*
X593074D01*
X590575Y695997D01*
Y693498D01*
X593074Y690998D01*
X598073D01*
X600572Y693498D01*
X585577Y705993D02*
Y690998D01*
X578079D01*
X575580Y693498D01*
Y695997D01*
X578079Y698496D01*
X585577D01*
X578079D01*
X575580Y700995D01*
Y703494D01*
X578079Y705993D01*
X585577D01*
X545590Y703494D02*
X548089Y705993D01*
X553087D01*
X555587Y703494D01*
Y693498D01*
X553087Y690998D01*
X548089D01*
X545590Y693498D01*
X540592Y705993D02*
Y690998D01*
Y698496D01*
X538092Y700995D01*
X533094D01*
X530595Y698496D01*
Y690998D01*
X523097Y700995D02*
X518099D01*
X515600Y698496D01*
Y690998D01*
X523097D01*
X525596Y693498D01*
X523097Y695997D01*
X515600D01*
X510601Y700995D02*
Y690998D01*
Y695997D01*
X508102Y698496D01*
X505603Y700995D01*
X503104D01*
X490608Y686000D02*
X488108D01*
X485609Y688499D01*
Y700995D01*
X493107D01*
X495606Y698496D01*
Y693498D01*
X493107Y690998D01*
X485609D01*
X473113D02*
X478112D01*
X480611Y693498D01*
Y698496D01*
X478112Y700995D01*
X473113D01*
X470614Y698496D01*
Y695997D01*
X480611D01*
X465616Y700995D02*
Y690998D01*
Y695997D01*
X463116Y698496D01*
X460617Y700995D01*
X458118D01*
X823000Y664994D02*
Y649998D01*
X815502D01*
X813003Y652498D01*
Y654997D01*
X815502Y657496D01*
X823000D01*
X815502D01*
X813003Y659995D01*
Y662494D01*
X815502Y664994D01*
X823000D01*
X808005Y659995D02*
Y652498D01*
X805506Y649998D01*
X798008D01*
Y647499D01*
X800507Y645000D01*
X803007D01*
X798008Y649998D02*
Y659995D01*
X793010D02*
X790510D01*
Y657496D01*
X793010D01*
Y659995D01*
Y652498D02*
X790510D01*
Y649998D01*
X793010D01*
Y652498D01*
X823000Y619000D02*
Y633995D01*
X813003Y619000D01*
Y633995D01*
X808005Y619000D02*
X803007D01*
X805506D01*
Y628997D01*
X808005D01*
X785512D02*
X793010D01*
X795509Y626498D01*
Y621499D01*
X793010Y619000D01*
X785512D01*
X778015D02*
X773016D01*
X770517Y621499D01*
Y626498D01*
X773016Y628997D01*
X778015D01*
X780514Y626498D01*
Y621499D01*
X778015Y619000D01*
X765519D02*
X760520D01*
X763019D01*
Y633995D01*
X765519D01*
X750524Y628997D02*
X745525D01*
X743026Y626498D01*
Y619000D01*
X750524D01*
X753023Y621499D01*
X750524Y623998D01*
X743026D01*
X738027Y619000D02*
X730530D01*
X728031Y621499D01*
X730530Y623998D01*
X735528D01*
X738027Y626498D01*
X735528Y628997D01*
X728031D01*
X708037Y619000D02*
Y628997D01*
X703039Y633995D01*
X698040Y628997D01*
Y619000D01*
Y626498D01*
X708037D01*
X693042Y619000D02*
X688044D01*
X690543D01*
Y633995D01*
X693042D01*
X680546Y628997D02*
X675548Y619000D01*
X670549Y628997D01*
X663052D02*
X658053D01*
X655554Y626498D01*
Y619000D01*
X663052D01*
X665551Y621499D01*
X663052Y623998D01*
X655554D01*
X650556Y628997D02*
Y619000D01*
Y623998D01*
X648057Y626498D01*
X645557Y628997D01*
X643058D01*
X628063Y619000D02*
X633061D01*
X635561Y621499D01*
Y626498D01*
X633061Y628997D01*
X628063D01*
X625564Y626498D01*
Y623998D01*
X635561D01*
X620565Y628997D02*
X610569D01*
X620565Y619000D01*
X610569D01*
X813003Y607494D02*
X815502Y609994D01*
X820501D01*
X823000Y607494D01*
Y597498D01*
X820501Y594998D01*
X815502D01*
X813003Y597498D01*
X805506Y594998D02*
X800507D01*
X798008Y597498D01*
Y602496D01*
X800507Y604995D01*
X805506D01*
X808005Y602496D01*
Y597498D01*
X805506Y594998D01*
X793010Y604995D02*
Y594998D01*
Y599997D01*
X790510Y602496D01*
X788011Y604995D01*
X785512D01*
X770517Y594998D02*
X775515D01*
X778015Y597498D01*
Y602496D01*
X775515Y604995D01*
X770517D01*
X768018Y602496D01*
Y599997D01*
X778015D01*
X763019Y604995D02*
Y597498D01*
X760520Y594998D01*
X753023D01*
Y592499D01*
X755522Y590000D01*
X758021D01*
X753023Y594998D02*
Y604995D01*
X733029Y609994D02*
X723032D01*
Y607494D01*
X733029Y597498D01*
Y594998D01*
X723032D01*
X715535Y604995D02*
X710536D01*
X708037Y602496D01*
Y594998D01*
X715535D01*
X718034Y597498D01*
X715535Y599997D01*
X708037D01*
X700540Y604995D02*
X695541D01*
X693042Y602496D01*
Y594998D01*
X700540D01*
X703039Y597498D01*
X700540Y599997D01*
X693042D01*
X688044Y594998D02*
X680546D01*
X678047Y597498D01*
X680546Y599997D01*
X685545D01*
X688044Y602496D01*
X685545Y604995D01*
X678047D01*
X823000Y584995D02*
Y570000D01*
X813003D01*
X808005Y579997D02*
Y572499D01*
X805506Y570000D01*
X798008D01*
Y579997D01*
X793010Y570000D02*
Y584995D01*
Y574998D02*
X785512Y579997D01*
X793010Y574998D02*
X785512Y570000D01*
X770517D02*
X775515D01*
X778015Y572499D01*
Y577498D01*
X775515Y579997D01*
X770517D01*
X768018Y577498D01*
Y574998D01*
X778015D01*
X748024Y570000D02*
Y579997D01*
X743026Y584995D01*
X738027Y579997D01*
Y570000D01*
Y577498D01*
X748024D01*
X723032Y584995D02*
Y570000D01*
X730530D01*
X733029Y572499D01*
Y577498D01*
X730530Y579997D01*
X723032D01*
X715535D02*
X710536D01*
X708037Y577498D01*
Y570000D01*
X715535D01*
X718034Y572499D01*
X715535Y574998D01*
X708037D01*
X703039Y570000D02*
Y579997D01*
X700540D01*
X698040Y577498D01*
Y570000D01*
Y577498D01*
X695541Y579997D01*
X693042Y577498D01*
Y570000D01*
X680546D02*
X685545D01*
X688044Y572499D01*
Y577498D01*
X685545Y579997D01*
X680546D01*
X678047Y577498D01*
Y574998D01*
X688044D01*
D26*
X722000Y435500D02*
D03*
Y406500D02*
D03*
D31*
X814000Y46000D02*
D03*
X46000D02*
D03*
X814000Y814000D02*
D03*
X46000D02*
D03*
D32*
X216000Y406000D02*
D03*
X546250Y105500D02*
D03*
X360250Y527250D02*
D03*
X443750Y422000D02*
D03*
X692000Y375000D02*
D03*
X499500Y561000D02*
D03*
X443500Y175250D02*
D03*
D33*
X249000Y770000D02*
D03*
X453000D02*
D03*
D34*
X368300Y103900D02*
D03*
X499700D02*
D03*
D35*
X399000Y131000D02*
D03*
D36*
X469000D02*
D03*
X424000D02*
D03*
X444000D02*
D03*
D37*
X540000Y350000D02*
D03*
X492000Y297000D02*
D03*
X429000Y581000D02*
D03*
D50*
X575000Y423000D02*
D03*
Y451000D02*
D03*
D53*
X692000Y421000D02*
D03*
Y436000D02*
D03*
D54*
X646000Y394000D02*
D03*
X618000D02*
D03*
X614000Y503000D02*
D03*
X642000D02*
D03*
D55*
X683500Y458000D02*
D03*
X698500D02*
D03*
D60*
X839500Y411000D02*
D03*
X810500D02*
D03*
X784500D02*
D03*
X755500D02*
D03*
D61*
X655500Y462050D02*
D03*
Y449350D02*
D03*
Y436650D02*
D03*
Y423950D02*
D03*
X606500Y462050D02*
D03*
Y449350D02*
D03*
Y436650D02*
D03*
Y423950D02*
D03*
D62*
X749000Y459000D02*
D03*
X777000D02*
D03*
M02*
