G04*
G04 #@! TF.GenerationSoftware,Altium Limited,Altium Designer,24.1.2 (44)*
G04*
G04 Layer_Physical_Order=1*
G04 Layer_Color=255*
%FSLAX44Y44*%
%MOMM*%
G71*
G04*
G04 #@! TF.SameCoordinates,927C013D-A056-43EA-BD9B-1951F5445D31*
G04*
G04*
G04 #@! TF.FilePolarity,Positive*
G04*
G01*
G75*
%ADD12C,0.2000*%
%ADD13C,0.3000*%
%ADD14C,0.2540*%
%ADD15R,6.0000X5.2000*%
%ADD16R,4.8000X4.8000*%
%ADD17R,1.9900X2.3300*%
%ADD18R,1.6000X0.9000*%
%ADD19R,2.5000X4.0000*%
%ADD20R,4.8600X3.3600*%
%ADD21R,1.4000X1.3900*%
%ADD22R,6.2000X5.8000*%
%ADD23R,1.6000X3.0000*%
%ADD38C,1.2000*%
%ADD39C,1.3000*%
%ADD40C,1.5000*%
%ADD41C,0.5000*%
%ADD42C,1.0000*%
%ADD43C,6.0000*%
%ADD44C,2.4000*%
%ADD45C,11.0000*%
%ADD46C,3.4500*%
G04:AMPARAMS|DCode=47|XSize=1.42mm|YSize=1.42mm|CornerRadius=0.355mm|HoleSize=0mm|Usage=FLASHONLY|Rotation=0.000|XOffset=0mm|YOffset=0mm|HoleType=Round|Shape=RoundedRectangle|*
%AMROUNDEDRECTD47*
21,1,1.4200,0.7100,0,0,0.0*
21,1,0.7100,1.4200,0,0,0.0*
1,1,0.7100,0.3550,-0.3550*
1,1,0.7100,-0.3550,-0.3550*
1,1,0.7100,-0.3550,0.3550*
1,1,0.7100,0.3550,0.3550*
%
%ADD47ROUNDEDRECTD47*%
%ADD48C,1.4200*%
%ADD49C,1.2700*%
G36*
X518000Y824000D02*
X518000Y613000D01*
X501000Y596000D01*
X365200D01*
X357000Y607714D01*
Y819000D01*
X397000Y859000D01*
X483000D01*
X518000Y824000D01*
D02*
G37*
G36*
X461500Y435727D02*
Y357403D01*
X412097Y308000D01*
X348286D01*
X340000Y317667D01*
Y336500D01*
X309000Y383000D01*
X284000Y383000D01*
X279000Y388000D01*
Y418000D01*
X283000Y422000D01*
X313000D01*
X334000Y443000D01*
X453500D01*
X461500Y435727D01*
D02*
G37*
G36*
X518500Y274500D02*
Y164000D01*
X507000Y154000D01*
X428875D01*
X405125Y124000D01*
X391500D01*
X385000Y137000D01*
X369000D01*
X348839Y157161D01*
Y209406D01*
X384000Y246000D01*
X435350D01*
X478350Y286000D01*
X507000D01*
X518500Y274500D01*
D02*
G37*
G36*
X340216Y823813D02*
X340216Y591000D01*
X269216Y520000D01*
Y273000D01*
X334216Y208000D01*
Y136000D01*
X340216Y130000D01*
X373000D01*
X386000Y117000D01*
X451216D01*
X457216Y123000D01*
Y138000D01*
X460216Y142000D01*
X463216Y145000D01*
X480216D01*
X486216Y139000D01*
X522216D01*
X532216Y145000D01*
Y274000D01*
X545370Y293000D01*
X618216D01*
X689250Y221966D01*
Y47000D01*
X642250Y0D01*
X141638D01*
X0Y171146D01*
Y721750D01*
X137250Y859000D01*
X309784D01*
X340216Y823813D01*
D02*
G37*
%LPC*%
G36*
X215540Y285540D02*
X162460D01*
Y232460D01*
X215540D01*
Y285540D01*
D02*
G37*
%LPD*%
D12*
X486000Y619000D02*
X499500Y605500D01*
D13*
Y561000D02*
Y605500D01*
X540000Y350000D02*
X551500Y338500D01*
Y236000D02*
Y338500D01*
X492000Y260000D02*
Y297000D01*
Y260000D02*
X493000Y259000D01*
D14*
X502000Y759600D02*
Y772000D01*
D15*
X379000Y183000D02*
D03*
Y335000D02*
D03*
D16*
X189000Y259000D02*
D03*
D17*
X378100Y681000D02*
D03*
X317900D02*
D03*
X316900Y621000D02*
D03*
X377100D02*
D03*
D18*
X405000Y580500D02*
D03*
Y609500D02*
D03*
D19*
X488500Y174000D02*
D03*
X551500D02*
D03*
X488500Y236000D02*
D03*
X551500D02*
D03*
D20*
X307820Y405000D02*
D03*
D21*
X263000Y390800D02*
D03*
Y419200D02*
D03*
D22*
X384100Y413200D02*
D03*
D23*
X361200Y485000D02*
D03*
X407000D02*
D03*
D38*
X427500Y580500D02*
X428000Y581000D01*
X405000Y580500D02*
X427500D01*
D39*
X407000Y568000D02*
Y579000D01*
D40*
Y485000D02*
Y568000D01*
X361200Y485000D02*
Y526300D01*
D41*
X379000Y408100D02*
X384100Y413200D01*
X375900Y405000D02*
X379000Y408100D01*
X307820Y405000D02*
X375900D01*
X379000Y335000D02*
Y408100D01*
D42*
X393900Y423000D02*
X430000D01*
X384100Y413200D02*
X393900Y423000D01*
D43*
X814000Y46000D02*
D03*
X46000D02*
D03*
X814000Y814000D02*
D03*
X46000D02*
D03*
D44*
X216000Y406000D02*
D03*
X546250Y105500D02*
D03*
X360250Y527250D02*
D03*
X443750Y422000D02*
D03*
X692000Y375000D02*
D03*
X499500Y561000D02*
D03*
X443500Y175250D02*
D03*
D45*
X249000Y770000D02*
D03*
X453000D02*
D03*
D46*
X368300Y103900D02*
D03*
X499700D02*
D03*
D47*
X399000Y131000D02*
D03*
D48*
X469000D02*
D03*
X424000D02*
D03*
X444000D02*
D03*
D49*
X540000Y350000D02*
D03*
X492000Y297000D02*
D03*
X429000Y581000D02*
D03*
M02*
